<?xml version="1.0" encoding="UTF-8"?>
<svg id="Layer_2" data-name="Layer 2" xmlns="http://www.w3.org/2000/svg" viewBox="0 0 97.2 55.46">
  <defs>
    <style>
      .cls-1 {
        fill: #2c92c9;
      }

      .cls-1, .cls-2 {
        stroke-width: 0px;
      }

      .cls-2 {
        fill: #fff;
      }
    </style>
  </defs>
  <g id="Layer_1-2" data-name="Layer 1">
    <g>
      <g>
        <path class="cls-2" d="m2.93,35.78v13.03H0v-13.03h2.93Zm6.88,0l-.96,3.24c-.61-.38-1.32-.58-2.1-.58-1.42,0-2.35.71-2.96,1.72l-.15-.08c.23-3.14,1.95-4.63,4.23-4.63.63,0,1.32.13,1.95.33Z"/>
        <path class="cls-2" d="m25.05,48.81v-13.03h2.93v13.03h-2.93Zm12.22-8.58v8.58h-2.93v-7.69c0-2.38-1.47-3.24-2.99-3.24-.78,0-1.7.25-2.48,1.14l-.15-.1c.63-2.43,2.3-3.47,4.25-3.47,2.15,0,4.3,1.21,4.3,4.78Z"/>
        <path class="cls-2" d="m43.23,35.78v15.51c0,2.63-1.42,4.17-4.05,4.17-.99,0-1.72-.2-2.35-.48l.61-2.4c.35.18.76.33,1.27.33.99,0,1.59-.66,1.59-1.75v-15.38h2.93Z"/>
        <path class="cls-2" d="m48.17,43.01c.28,2.25,1.97,3.69,4.15,3.69,1.37,0,2.38-.48,3.36-1.29l1.47,1.72c-1.16,1.24-3.06,2-5.04,2-4,0-6.7-2.93-6.7-6.86s2.58-6.78,6.33-6.78c3.29,0,5.84,2.3,5.84,5.92,0,.48-.05,1.01-.15,1.59h-9.26Zm6.88-2.05c-.18-2.05-1.62-3.24-3.31-3.24-1.85,0-3.06,1.39-3.47,3.24h6.78Z"/>
        <polygon class="cls-2" points="71.98 48.81 68.74 48.81 64.67 42.99 63.46 42.99 68.26 35.78 71.38 35.78 67.33 41.88 71.98 48.81"/>
        <path class="cls-2" d="m84.47,40.54v8.27h-2.94v-5.72l-2.88.3c-2.02.23-3.01.91-3.01,2.05s1.06,1.75,2.25,1.75c.99,0,1.92-.38,2.71-.99l.13.13c-.89,1.7-2.25,2.81-4.25,2.81-2.2,0-3.85-1.29-3.85-3.44s1.75-3.97,5.04-4.33l3.87-.4v-.28c0-2.1-1.57-2.78-3.09-2.78-1.39,0-2.38.56-3.29,1.57l-1.85-1.44c1.24-1.72,3.06-2.58,5.39-2.58,3.06,0,5.77,1.47,5.77,5.09Z"/>
        <path class="cls-2" d="m22.13,40.54v8.27h-2.93v-5.72l-2.88.3c-2.02.23-3.01.91-3.01,2.05s1.06,1.75,2.25,1.75c.99,0,1.92-.38,2.71-.99l.13.13c-.89,1.7-2.25,2.81-4.25,2.81-2.2,0-3.85-1.29-3.85-3.44s1.75-3.97,5.03-4.33l3.87-.4v-.28c0-2.1-1.57-2.78-3.09-2.78-1.39,0-2.38.56-3.29,1.57l-1.85-1.44c1.24-1.72,3.06-2.58,5.39-2.58,3.06,0,5.77,1.47,5.77,5.09Z"/>
        <rect class="cls-2" x="59.86" y="35.68" width="2.93" height="13.13"/>
        <path class="cls-2" d="m2.93,35.78v13.03H0v-13.03h2.93Zm6.88,0l-.96,3.24c-.61-.38-1.32-.58-2.1-.58-1.42,0-2.35.71-2.96,1.72l-.15-.08c.23-3.14,1.95-4.63,4.23-4.63.63,0,1.32.13,1.95.33Z"/>
        <path class="cls-2" d="m90.32,35.78v13.03h-2.93v-13.03h2.93Zm6.88,0l-.96,3.24c-.61-.38-1.32-.58-2.1-.58-1.42,0-2.35.71-2.96,1.72l-.15-.08c.23-3.14,1.95-4.63,4.23-4.63.63,0,1.32.13,1.95.33Z"/>
      </g>
      <g>
        <circle class="cls-2" cx="48.65" cy="24.06" r="3.9"/>
        <rect class="cls-2" x="36.83" y=".72" width="6.38" height="27.24"/>
        <path class="cls-1" d="m58.17.72l-2.09,7.04c-1.32-.82-2.86-1.26-4.57-1.26-3.08,0-5.12,1.54-6.44,3.74l-.33-.17c.5-6.82,4.24-10.07,9.19-10.07,1.38,0,2.86.28,4.24.72Z"/>
      </g>
    </g>
  </g>
</svg>